<svg width="42" height="42" viewBox="0 0 42 42" fill="none" xmlns="http://www.w3.org/2000/svg">
<path d="M20.7155 3.31128C17.0098 3.31565 13.4572 4.78965 10.8369 7.40993C8.21666 10.0302 6.74266 13.5828 6.73829 17.2884C6.73488 20.3165 7.72394 23.2623 9.55405 25.6748C9.55405 25.6748 9.93525 26.1767 9.99751 26.2491L20.7155 38.8895L31.4385 26.2427C31.4944 26.1754 31.8769 25.6748 31.8769 25.6748L31.8781 25.6709C33.707 23.2594 34.6956 20.3151 34.6926 17.2884C34.6883 13.5828 33.2143 10.0302 30.594 7.40993C27.9737 4.78965 24.4211 3.31565 20.7155 3.31128ZM20.7155 22.3711C19.7102 22.3711 18.7275 22.073 17.8917 21.5145C17.0559 20.956 16.4044 20.1622 16.0197 19.2335C15.6351 18.3048 15.5344 17.2828 15.7305 16.2969C15.9266 15.311 16.4107 14.4053 17.1215 13.6945C17.8323 12.9837 18.738 12.4996 19.7239 12.3035C20.7098 12.1074 21.7318 12.208 22.6605 12.5927C23.5892 12.9774 24.383 13.6289 24.9415 14.4647C25.5 15.3005 25.7981 16.2832 25.7981 17.2884C25.7964 18.6359 25.2604 19.9277 24.3076 20.8805C23.3547 21.8333 22.0629 22.3694 20.7155 22.3711Z" fill="black"/>
</svg>
