<svg width="57" height="57" viewBox="0 0 57 57" fill="none" xmlns="http://www.w3.org/2000/svg">
<path fill-rule="evenodd" clip-rule="evenodd" d="M28.8841 9.97166C25.6242 9.97106 22.421 10.8255 19.5945 12.4497C16.7679 14.0739 14.4168 16.4111 12.7758 19.2279C11.1348 22.0448 10.2613 25.2428 10.2424 28.5027C10.2236 31.7626 11.0602 34.9705 12.6686 37.8061C13.7557 36.3932 15.1532 35.2493 16.7529 34.4627C18.3527 33.6762 20.112 33.268 21.8947 33.2699H35.8736C37.6563 33.268 39.4156 33.6762 41.0153 34.4627C42.6151 35.2493 44.0126 36.3932 45.0997 37.8061C46.7081 34.9705 47.5447 31.7626 47.5258 28.5027C47.507 25.2428 46.6335 22.0448 44.9925 19.2279C43.3515 16.4111 41.0004 14.0739 38.1738 12.4497C35.3473 10.8255 32.1441 9.97106 28.8841 9.97166ZM47.3899 42.7663C47.6819 42.3857 47.9615 41.9959 48.2287 41.5967C50.8116 37.7588 52.1884 33.2364 52.1824 28.6103C52.1824 15.7426 41.7518 5.31201 28.8841 5.31201C16.0165 5.31201 5.5859 15.7426 5.5859 28.6103C5.57856 33.7283 7.26347 38.7052 10.3784 42.7663L10.3667 42.8082L11.1938 43.7704C13.3789 46.3251 16.092 48.3756 19.146 49.7805C22.2001 51.1855 25.5224 51.9115 28.8841 51.9085C29.3874 51.9085 29.8875 51.893 30.3846 51.8619C34.5885 51.5968 38.6407 50.1913 42.1059 47.7964C43.7631 46.6531 45.2652 45.2998 46.5745 43.7704L47.4016 42.8082L47.3899 42.7663ZM28.8841 14.6313C27.0304 14.6313 25.2526 15.3677 23.9418 16.6785C22.6311 17.9893 21.8947 19.7671 21.8947 21.6208C21.8947 23.4745 22.6311 25.2523 23.9418 26.5631C25.2526 27.8739 27.0304 28.6103 28.8841 28.6103C30.7379 28.6103 32.5157 27.8739 33.8265 26.5631C35.1372 25.2523 35.8736 23.4745 35.8736 21.6208C35.8736 19.7671 35.1372 17.9893 33.8265 16.6785C32.5157 15.3677 30.7379 14.6313 28.8841 14.6313Z" fill="#180161"/>
</svg>
