<svg width="57" height="57" viewBox="0 0 57 57" fill="none" xmlns="http://www.w3.org/2000/svg">
<rect width="55.9158" height="55.9158" transform="translate(0.684204 0.137207)" fill="white"/>
<path d="M50.6589 26.294H47.4204C46.9972 21.8896 45.0546 17.7697 41.9259 14.641C38.7972 11.5123 34.6773 9.56973 30.2729 9.14647V5.90801C30.2729 5.44458 30.0888 5.00013 29.7611 4.67244C29.4334 4.34474 28.989 4.16064 28.5256 4.16064C28.0621 4.16064 27.6177 4.34474 27.29 4.67244C26.9623 5.00013 26.7782 5.44458 26.7782 5.90801V9.14647C22.3931 9.59089 18.2981 11.5433 15.1921 14.6705C12.0862 17.7978 10.1617 21.9059 9.74718 26.294H6.50872C6.27925 26.294 6.05203 26.3392 5.84003 26.427C5.62803 26.5148 5.4354 26.6435 5.27314 26.8058C5.11089 26.968 4.98218 27.1607 4.89436 27.3727C4.80655 27.5847 4.76135 27.8119 4.76135 28.0413C4.76135 28.2708 4.80655 28.498 4.89436 28.71C4.98218 28.922 5.11089 29.1147 5.27314 29.2769C5.4354 29.4392 5.62803 29.5679 5.84003 29.6557C6.05203 29.7435 6.27925 29.7887 6.50872 29.7887H9.74718C10.1704 34.1931 12.113 38.313 15.2417 41.4417C18.3704 44.5704 22.4903 46.513 26.8947 46.9362V50.1747C26.8947 50.6381 27.0788 51.0826 27.4065 51.4103C27.7342 51.738 28.1786 51.9221 28.6421 51.9221C29.1055 51.9221 29.5499 51.738 29.8776 51.4103C30.2053 51.0826 30.3894 50.6381 30.3894 50.1747V46.9362C34.7922 46.5087 38.9096 44.5647 42.0375 41.4368C45.1654 38.3089 47.1094 34.1915 47.5369 29.7887H50.7754C51.0049 29.7887 51.2321 29.7435 51.4441 29.6557C51.6561 29.5679 51.8487 29.4392 52.011 29.2769C52.1732 29.1147 52.3019 28.922 52.3897 28.71C52.4776 28.498 52.5228 28.2708 52.5228 28.0413C52.5228 27.8119 52.4776 27.5847 52.3897 27.3727C52.3019 27.1607 52.1732 26.968 52.011 26.8058C51.8487 26.6435 51.6561 26.5148 51.4441 26.427C51.2321 26.3392 51.0049 26.294 50.7754 26.294H50.6589ZM28.5256 43.5114C25.4659 43.5114 22.4749 42.6041 19.9309 40.9042C17.3868 39.2043 15.404 36.7883 14.2331 33.9615C13.0622 31.1347 12.7559 28.0242 13.3528 25.0233C13.9497 22.0224 15.4231 19.2659 17.5866 17.1024C19.7501 14.9389 22.5066 13.4655 25.5075 12.8686C28.5084 12.2716 31.6189 12.578 34.4457 13.7489C37.2725 14.9198 39.6886 16.9026 41.3884 19.4467C43.0883 21.9907 43.9956 24.9817 43.9956 28.0413C43.9956 32.1464 42.3665 36.0837 39.466 38.9886C36.5654 41.8935 32.6306 43.5285 28.5256 43.5347V43.5114Z" fill="#00C113"/>
<path d="M39.0797 28.0642C39.0797 30.1573 38.4587 32.2032 37.2954 33.9432C36.1321 35.6831 34.4788 37.0388 32.5447 37.8387C30.6105 38.6386 28.4826 38.8467 26.4301 38.4367C24.3777 38.0266 22.493 37.0169 21.0147 35.5353C19.5363 34.0537 18.5308 32.1668 18.1253 30.1135C17.7198 28.0601 17.9326 25.9326 18.7367 24.0003C19.5409 22.0679 20.9002 20.4176 22.6427 19.2581C24.3853 18.0987 26.4326 17.4822 28.5256 17.4868C29.9135 17.4868 31.2878 17.7606 32.5698 18.2924C33.8518 18.8243 35.0164 19.6038 35.9967 20.5863C36.977 21.5688 37.754 22.735 38.283 24.0182C38.812 25.3014 39.0827 26.6763 39.0797 28.0642Z" fill="#00C113"/>
</svg>
