<svg width="2996" height="2001" viewBox="0 0 2996 2001" fill="none" xmlns="http://www.w3.org/2000/svg">
<g filter="url(#filter0_f_2093_152)">
<path d="M1211.25 1186.45C1482.39 1216.32 1602.32 965.478 1628.39 836.319C1797.92 834.776 2274.11 877.63 2831.37 1060.55L2845.06 1849.36C2535.1 1746.65 1821.32 1571.12 1445.89 1690.63C1070.46 1810.14 779.617 1612.83 681.125 1499.23C573.942 1394.97 397.814 1148.17 550.767 995.044C741.958 803.641 872.316 1149.1 1211.25 1186.45Z" fill="#EB3678"/>
<path d="M2845.06 1065.07C2840.49 1063.55 2835.93 1062.05 2831.37 1060.55M2831.37 1060.55C2274.11 877.63 1797.92 834.776 1628.39 836.319C1602.32 965.478 1482.39 1216.32 1211.25 1186.45C872.316 1149.1 741.958 803.641 550.767 995.044C397.814 1148.17 573.942 1394.97 681.125 1499.23C779.617 1612.83 1070.46 1810.14 1445.89 1690.63C1821.32 1571.12 2535.1 1746.65 2845.06 1849.36L2831.37 1060.55Z" stroke="#5C5C5C"/>
</g>
<g filter="url(#filter1_f_2093_152)">
<path d="M533.444 686.945C648.047 703.579 698.737 563.927 709.756 492.022C781.409 491.163 982.677 515.021 1218.21 616.857L1224 1056C1092.99 998.823 791.301 901.101 632.62 967.635C473.939 1034.17 351.01 924.319 309.381 861.077C264.078 803.033 189.635 665.634 254.283 580.387C335.093 473.829 390.19 666.154 533.444 686.945Z" fill="#EB3678"/>
<path d="M1224 619.372C1222.07 618.528 1220.14 617.69 1218.21 616.857M1218.21 616.857C982.677 515.021 781.409 491.163 709.756 492.022C698.737 563.927 648.047 703.579 533.444 686.945C390.19 666.154 335.093 473.829 254.283 580.387C189.635 665.634 264.078 803.033 309.381 861.077C351.01 924.319 473.939 1034.17 632.62 967.635C791.301 901.101 1092.99 998.823 1224 1056L1218.21 616.857Z" stroke="#5C5C5C"/>
</g>
<g filter="url(#filter2_f_2093_152)">
<path d="M992.187 1267.26C1153.9 1281.81 1225.42 1159.64 1240.97 1096.74C1342.07 1095.98 1626.07 1116.86 1958.42 1205.94L1966.58 1590.11C1781.72 1540.09 1356.03 1454.61 1132.13 1512.81C908.223 1571.02 734.767 1474.92 676.027 1419.59C612.103 1368.81 507.062 1248.61 598.282 1174.04C712.307 1080.82 790.052 1249.07 992.187 1267.26Z" fill="#EB3678"/>
<path d="M1966.58 1208.14C1963.86 1207.41 1961.14 1206.67 1958.42 1205.94M1958.42 1205.94C1626.07 1116.86 1342.07 1095.98 1240.97 1096.74C1225.42 1159.64 1153.9 1281.81 992.187 1267.26C790.052 1249.07 712.307 1080.82 598.282 1174.04C507.062 1248.61 612.103 1368.81 676.027 1419.59C734.767 1474.92 908.223 1571.02 1132.13 1512.81C1356.03 1454.61 1781.72 1540.09 1966.58 1590.11L1958.42 1205.94Z" stroke="#5C5C5C"/>
</g>
<g filter="url(#filter3_f_2093_152)">
<path d="M1105.31 1378.37C1234.35 1063.24 1410.09 1322.79 1481.84 1491.95C1670.36 1546.07 1782.4 1524.21 1697.02 1472.69C1625.29 1479.11 1554.35 1404.93 1844.42 1056.83C2207.01 621.703 1324.3 739.965 847 765.999C369.7 792.033 1115.14 1036.85 605.746 1069.08C96.3502 1101.32 815.588 1094.75 441.627 1297.19C142.457 1459.14 563.856 1419.63 811.951 1379.63C855.975 1510.51 976.282 1693.49 1105.31 1378.37Z" fill="#180161"/>
<path d="M1105.31 1378.37C1234.35 1063.24 1410.09 1322.79 1481.84 1491.95C1670.36 1546.07 1782.4 1524.21 1697.02 1472.69C1625.29 1479.11 1554.35 1404.93 1844.42 1056.83C2207.01 621.703 1324.3 739.965 847 765.999C369.7 792.033 1115.14 1036.85 605.746 1069.08C96.3502 1101.32 815.588 1094.75 441.627 1297.19C142.457 1459.14 563.856 1419.63 811.951 1379.63C855.975 1510.51 976.282 1693.49 1105.31 1378.37Z" stroke="#5C5C5C"/>
<path d="M1105.31 1378.37C1234.35 1063.24 1410.09 1322.79 1481.84 1491.95C1670.36 1546.07 1782.4 1524.21 1697.02 1472.69C1625.29 1479.11 1554.35 1404.93 1844.42 1056.83C2207.01 621.703 1324.3 739.965 847 765.999C369.7 792.033 1115.14 1036.85 605.746 1069.08C96.3502 1101.32 815.588 1094.75 441.627 1297.19C142.457 1459.14 563.856 1419.63 811.951 1379.63C855.975 1510.51 976.282 1693.49 1105.31 1378.37Z" stroke="black" stroke-opacity="0.2"/>
</g>
<g filter="url(#filter4_f_2093_152)">
<path d="M1991.85 893.91C1987.04 958.157 1899.13 988.703 1817.91 954.347L1216.17 699.812C1118.08 658.32 1104.04 556.959 1192.14 526.348L1829.51 304.895C1917.61 274.284 2033.29 340.33 2027.49 417.921L1991.85 893.91Z" fill="#4F1787"/>
</g>
<g filter="url(#filter5_f_2093_152)">
<path d="M1029.21 1542.08C1027.56 1564.67 996.652 1575.41 968.123 1563.31L634.678 1421.9C600.302 1407.32 595.409 1371.79 626.299 1361.06L979.05 1238.49C1009.94 1227.76 1050.51 1250.89 1048.52 1278.11L1029.21 1542.08Z" fill="#4F1787"/>
</g>
<g filter="url(#filter6_f_2093_152)">
<path d="M1174.67 1201.66C1178.21 1201.22 1181.79 1201.22 1185.33 1201.66L1829.92 1282.11C1849.37 1284.54 1864.72 1299.81 1867.23 1319.25L1878.45 1405.8C1881.54 1429.66 1864.45 1451.42 1840.53 1454.06L1184.72 1526.51C1181.58 1526.86 1178.42 1526.86 1175.28 1526.51L519.473 1454.06C495.554 1451.42 478.459 1429.66 481.552 1405.8L492.765 1319.25C495.284 1299.81 510.632 1284.54 530.084 1282.11L1174.67 1201.66Z" fill="#343CFF"/>
</g>
<g filter="url(#filter7_f_2093_152)">
<path d="M830.205 300.931C834.379 300.314 838.621 300.314 842.795 300.931L1473.59 394.277C1492.94 397.14 1507.92 412.7 1510.04 432.143L1522.58 546.91C1525.12 570.161 1508.61 591.179 1485.42 594.217L842.085 678.493C838.378 678.979 834.622 678.979 830.915 678.493L187.577 594.217C164.386 591.179 147.876 570.161 150.417 546.91L162.958 432.143C165.082 412.7 180.061 397.14 199.409 394.277L830.205 300.931Z" fill="#FF7B7E"/>
</g>
<defs>
<filter id="filter0_f_2093_152" x="340.449" y="685.779" width="2655.13" height="1314.27" filterUnits="userSpaceOnUse" color-interpolation-filters="sRGB">
<feFlood flood-opacity="0" result="BackgroundImageFix"/>
<feBlend mode="normal" in="SourceGraphic" in2="BackgroundImageFix" result="shape"/>
<feGaussianBlur stdDeviation="75" result="effect1_foregroundBlur_2093_152"/>
</filter>
<filter id="filter1_f_2093_152" x="78.5001" y="341.5" width="1296.01" height="865.268" filterUnits="userSpaceOnUse" color-interpolation-filters="sRGB">
<feFlood flood-opacity="0" result="BackgroundImageFix"/>
<feBlend mode="normal" in="SourceGraphic" in2="BackgroundImageFix" result="shape"/>
<feGaussianBlur stdDeviation="75" result="effect1_foregroundBlur_2093_152"/>
</filter>
<filter id="filter2_f_2093_152" x="412.107" y="946.217" width="1704.99" height="794.554" filterUnits="userSpaceOnUse" color-interpolation-filters="sRGB">
<feFlood flood-opacity="0" result="BackgroundImageFix"/>
<feBlend mode="normal" in="SourceGraphic" in2="BackgroundImageFix" result="shape"/>
<feGaussianBlur stdDeviation="75" result="effect1_foregroundBlur_2093_152"/>
</filter>
<filter id="filter3_f_2093_152" x="187.77" y="581.346" width="1892.43" height="1121.76" filterUnits="userSpaceOnUse" color-interpolation-filters="sRGB">
<feFlood flood-opacity="0" result="BackgroundImageFix"/>
<feBlend mode="normal" in="SourceGraphic" in2="BackgroundImageFix" result="shape"/>
<feGaussianBlur stdDeviation="75" result="effect1_foregroundBlur_2093_152"/>
</filter>
<filter id="filter4_f_2093_152" x="983.608" y="147.245" width="1194.09" height="971.384" filterUnits="userSpaceOnUse" color-interpolation-filters="sRGB">
<feFlood flood-opacity="0" result="BackgroundImageFix"/>
<feBlend mode="normal" in="SourceGraphic" in2="BackgroundImageFix" result="shape"/>
<feGaussianBlur stdDeviation="75" result="effect1_foregroundBlur_2093_152"/>
</filter>
<filter id="filter5_f_2093_152" x="455.761" y="1085.81" width="742.827" height="632.532" filterUnits="userSpaceOnUse" color-interpolation-filters="sRGB">
<feFlood flood-opacity="0" result="BackgroundImageFix"/>
<feBlend mode="normal" in="SourceGraphic" in2="BackgroundImageFix" result="shape"/>
<feGaussianBlur stdDeviation="75" result="effect1_foregroundBlur_2093_152"/>
</filter>
<filter id="filter6_f_2093_152" x="331.19" y="1051.33" width="1697.62" height="625.44" filterUnits="userSpaceOnUse" color-interpolation-filters="sRGB">
<feFlood flood-opacity="0" result="BackgroundImageFix"/>
<feBlend mode="normal" in="SourceGraphic" in2="BackgroundImageFix" result="shape"/>
<feGaussianBlur stdDeviation="75" result="effect1_foregroundBlur_2093_152"/>
</filter>
<filter id="filter7_f_2093_152" x="0.158813" y="150.468" width="1672.68" height="678.389" filterUnits="userSpaceOnUse" color-interpolation-filters="sRGB">
<feFlood flood-opacity="0" result="BackgroundImageFix"/>
<feBlend mode="normal" in="SourceGraphic" in2="BackgroundImageFix" result="shape"/>
<feGaussianBlur stdDeviation="75" result="effect1_foregroundBlur_2093_152"/>
</filter>
</defs>
</svg>
