<svg width="24" height="24" viewBox="0 0 24 24" fill="none" xmlns="http://www.w3.org/2000/svg">
<path d="M1 20.3338C1 18.9193 1.5619 17.5628 2.5621 16.5626C3.56229 15.5624 4.91885 15.0005 6.33333 15.0005H17C18.4145 15.0005 19.771 15.5624 20.7712 16.5626C21.7714 17.5628 22.3333 18.9193 22.3333 20.3338C22.3333 21.0411 22.0524 21.7193 21.5523 22.2194C21.0522 22.7195 20.3739 23.0005 19.6667 23.0005H3.66667C2.95942 23.0005 2.28115 22.7195 1.78105 22.2194C1.28095 21.7193 1 21.0411 1 20.3338Z" stroke="white" stroke-width="1.5" stroke-linejoin="round"/>
<path d="M11.6666 9.66699C13.8758 9.66699 15.6666 7.87613 15.6666 5.66699C15.6666 3.45785 13.8758 1.66699 11.6666 1.66699C9.45749 1.66699 7.66663 3.45785 7.66663 5.66699C7.66663 7.87613 9.45749 9.66699 11.6666 9.66699Z" stroke="white" stroke-width="1.5"/>
</svg>
