<svg width="51" height="45" viewBox="0 0 51 45" fill="none" xmlns="http://www.w3.org/2000/svg">
<path d="M38.2216 31.1569L47.2561 39.1856L44.2713 41.8387L35.239 33.8081C31.8782 36.2029 27.698 37.5054 23.3906 37.5C12.9113 37.5 4.40625 29.94 4.40625 20.625C4.40625 11.31 12.9113 3.75 23.3906 3.75C33.87 3.75 42.375 11.31 42.375 20.625C42.3811 24.4538 40.9158 28.1695 38.2216 31.1569ZM33.9902 29.7656C36.6667 27.3182 38.1616 24.0382 38.1562 20.625C38.1562 13.3744 31.5476 7.5 23.3906 7.5C15.2337 7.5 8.625 13.3744 8.625 20.625C8.625 27.8756 15.2337 33.75 23.3906 33.75C27.2305 33.7548 30.9205 32.426 33.6738 30.0469L33.9902 29.7656Z" fill="#EB3678"/>
</svg>
