<svg width="57" height="57" viewBox="0 0 57 57" fill="none" xmlns="http://www.w3.org/2000/svg">
<path d="M39.1263 26.3547C43.6228 26.3547 47.2807 22.6968 47.2807 18.2003C47.2807 13.7037 43.6228 10.0459 39.1263 10.0459C34.6297 10.0459 30.9719 13.7037 30.9719 18.2003V21.695H26.3123V18.2003C26.3123 13.7037 22.6544 10.0459 18.1579 10.0459C13.6613 10.0459 10.0035 13.7037 10.0035 18.2003C10.0035 22.6968 13.6613 26.3547 18.1579 26.3547H21.6526V31.0143H18.1579C13.6613 31.0143 10.0035 34.6721 10.0035 39.1687C10.0035 43.6653 13.6613 47.3231 18.1579 47.3231C22.6544 47.3231 26.3123 43.6653 26.3123 39.1687V35.674H30.9719V39.1687C30.9719 43.6653 34.6297 47.3231 39.1263 47.3231C43.6228 47.3231 47.2807 43.6653 47.2807 39.1687C47.2807 34.6721 43.6228 31.0143 39.1263 31.0143H35.6315V26.3547H39.1263ZM35.6315 18.2003C35.6646 17.2955 36.0473 16.4388 36.699 15.8104C37.3508 15.182 38.2209 14.8308 39.1263 14.8308C40.0317 14.8308 40.9018 15.182 41.5535 15.8104C42.2053 16.4388 42.588 17.2955 42.621 18.2003C42.621 20.1247 41.0531 21.695 39.1263 21.695H35.6315V18.2003ZM21.6526 39.1687C21.6526 41.0931 20.0846 42.6634 18.1579 42.6634C16.2311 42.6634 14.6631 41.0931 14.6631 39.1687C14.6631 37.2396 16.2311 35.674 18.1579 35.674H21.6526V39.1687ZM21.6526 21.695H18.1579C17.466 21.6955 16.7896 21.4907 16.2141 21.1066C15.6387 20.7225 15.1901 20.1764 14.9251 19.5373C14.6601 18.8982 14.5907 18.1949 14.7256 17.5163C14.8604 16.8377 15.1935 16.2144 15.6827 15.7252C16.172 15.2359 16.7953 14.9028 17.4739 14.768C18.1524 14.6331 18.8558 14.7026 19.4949 14.9675C20.134 15.2325 20.6801 15.6811 21.0642 16.2565C21.4483 16.832 21.6531 17.5084 21.6526 18.2003V21.695ZM30.9719 31.0143H26.3123V26.3547H30.9719V31.0143ZM39.1263 35.674C40.0311 35.707 40.8878 36.0897 41.5162 36.7414C42.1446 37.3932 42.4957 38.2633 42.4957 39.1687C42.4957 40.0741 42.1446 40.9442 41.5162 41.596C40.8878 42.2477 40.0311 42.6304 39.1263 42.6634C37.1995 42.6634 35.6315 41.0931 35.6315 39.1687V35.674H39.1263Z" fill="#FF204E"/>
</svg>
