<svg width="52" height="47" viewBox="0 0 52 47" fill="none" xmlns="http://www.w3.org/2000/svg">
<path d="M40.9782 33.293L51.9263 43.0224L48.3093 46.2375L37.3637 36.5058C33.2911 39.4079 28.2254 40.9863 23.0056 40.9797C10.3065 40.9797 0 31.8184 0 20.5303C0 9.24217 10.3065 0.0808105 23.0056 0.0808105C35.7048 0.0808105 46.0113 9.24217 46.0113 20.5303C46.0187 25.17 44.243 29.6729 40.9782 33.293ZM35.8505 31.6071C39.0938 28.6412 40.9054 24.6664 40.8989 20.5303C40.8989 11.7438 32.8904 4.62514 23.0056 4.62514C13.1209 4.62514 5.11237 11.7438 5.11237 20.5303C5.11237 29.3167 13.1209 36.4354 23.0056 36.4354C27.6588 36.4412 32.1305 34.8309 35.467 31.9479L35.8505 31.6071Z" fill="black"/>
</svg>
