<svg width="27" height="27" viewBox="0 0 27 27" fill="none" xmlns="http://www.w3.org/2000/svg">
<path d="M13.3906 26.455C11.552 26.455 9.82021 26.1143 8.19532 25.433C6.57042 24.7507 5.15532 23.8247 3.95001 22.655C2.74469 21.4852 1.78975 20.113 1.08516 18.5383C0.380581 16.9636 0.0292791 15.2843 0.0312583 13.5004C0.0312583 11.7118 0.38256 10.031 1.08516 8.45824C1.78876 6.88451 2.74371 5.51372 3.95001 4.3459C5.15631 3.17807 6.57141 2.25206 8.19532 1.56787C9.82021 0.886555 11.552 0.545898 13.3906 0.545898C15.2352 0.545898 16.9685 0.886555 18.5904 1.56787C20.2133 2.25014 21.6274 3.17615 22.8327 4.3459C24.038 5.51564 24.9925 6.88643 25.6961 8.45824C26.3987 10.032 26.75 11.7127 26.75 13.5004C26.75 15.2834 26.3987 16.9627 25.6961 18.5383C24.9925 20.114 24.0376 21.4862 22.8313 22.655C21.625 23.8238 20.2113 24.7498 18.5904 25.433C16.9695 26.1162 15.2362 26.4569 13.3906 26.455ZM13.3906 25.0271C14.2615 23.9418 14.9799 22.8762 15.5459 21.8302C16.111 20.7843 16.5707 19.6135 16.9249 18.3181H9.85633C10.2492 19.6865 10.7183 20.8936 11.2635 21.9396C11.8098 22.9856 12.5188 24.0147 13.3906 25.0271ZM11.501 24.8112C10.8083 24.0195 10.176 23.0407 9.60399 21.8748C9.03201 20.7099 8.60649 19.5238 8.32743 18.3166H2.63485C3.48589 20.1063 4.6917 21.5745 6.25227 22.7212C7.81383 23.867 9.56342 24.5636 11.501 24.8112ZM15.2802 24.8112C17.2178 24.5636 18.9674 23.867 20.529 22.7212C22.0896 21.5745 23.2954 20.1063 24.1464 18.3166H18.4553C18.0793 19.5421 17.6058 20.7372 17.0348 21.9022C16.4628 23.0681 15.8779 24.0387 15.2802 24.8112ZM2.02923 16.8787H8.01868C7.90586 16.2876 7.8267 15.7118 7.78118 15.1514C7.73368 14.592 7.70993 14.0417 7.70993 13.5004C7.70993 12.9592 7.73318 12.4089 7.77969 11.8495C7.8262 11.29 7.90537 10.7143 8.01719 10.1222H2.03071C1.86941 10.6212 1.74324 11.1648 1.6522 11.753C1.56115 12.3403 1.51563 12.9228 1.51563 13.5004C1.51563 14.0781 1.56066 14.6611 1.65071 15.2493C1.74076 15.8375 1.86694 16.3802 2.02923 16.8773M9.50305 16.8773H17.2782C17.391 16.2871 17.4702 15.7209 17.5157 15.1788C17.5632 14.6376 17.587 14.0781 17.587 13.5004C17.587 12.9228 17.5637 12.3633 17.5172 11.8221C17.4707 11.2809 17.3915 10.7147 17.2797 10.1236H9.50157C9.38975 10.7138 9.31058 11.2799 9.26407 11.8221C9.21756 12.3633 9.1943 12.9228 9.1943 13.5004C9.1943 14.0781 9.21756 14.6376 9.26407 15.1788C9.31058 15.72 9.39123 16.2861 9.50305 16.8773ZM18.7641 16.8773H24.752C24.9133 16.3792 25.0395 15.8366 25.1305 15.2493C25.2206 14.6611 25.2656 14.0781 25.2656 13.5004C25.2656 12.9228 25.2206 12.3398 25.1305 11.7516C25.0405 11.1633 24.9143 10.6207 24.752 10.1236H18.7626C18.8754 10.7138 18.9546 11.2891 19.0001 11.8495C19.0476 12.4099 19.0713 12.9602 19.0713 13.5004C19.0713 14.0407 19.0481 14.591 19.0016 15.1514C18.9551 15.7118 18.8759 16.2876 18.7641 16.8787M18.4553 8.68423H24.1464C23.2766 6.85716 22.0851 5.38898 20.572 4.27968C19.059 3.17039 17.295 2.46461 15.2802 2.16234C15.9729 3.04612 16.5959 4.05706 17.1491 5.19514C17.7022 6.33226 18.1377 7.49529 18.4553 8.68423ZM9.85633 8.68423H16.9249C16.533 7.33312 16.0496 6.11155 15.4747 5.01953C14.8997 3.92751 14.2051 2.91226 13.3906 1.97378C12.5762 2.9113 11.8815 3.92655 11.3066 5.01953C10.7316 6.11251 10.2472 7.33408 9.85633 8.68423ZM2.63634 8.68423H8.32743C8.64508 7.49625 9.0805 6.33322 9.63368 5.19514C10.1869 4.05706 10.8098 3.04612 11.5025 2.16234C9.4699 2.46557 7.70152 3.17567 6.19735 4.29264C4.69318 5.41153 3.50568 6.87491 2.63485 8.68279" fill="black"/>
</svg>
