<svg width="57" height="56" viewBox="0 0 57 56" fill="none" xmlns="http://www.w3.org/2000/svg">
<path d="M37.1158 3.51611C34.66 3.51555 32.2383 4.09024 30.0446 5.19413C27.8509 6.29801 25.9463 7.90041 24.4835 9.87289C23.0206 11.8454 22.0401 14.1331 21.6205 16.5528C21.2009 18.9724 21.354 21.4567 22.0674 23.8066L3.91577 41.9582V52.4424H14.4L32.5516 34.2908C34.7147 34.9473 36.9939 35.1299 39.2339 34.8259C41.4739 34.522 43.6221 33.7387 45.532 32.5295C47.4419 31.3203 49.0686 29.7135 50.3014 27.8187C51.5342 25.9239 52.344 23.7856 52.6756 21.5495C53.0072 19.3135 52.8529 17.0322 52.2231 14.8612C51.5933 12.6901 50.5029 10.6804 49.0262 8.96888C47.5495 7.25738 45.7211 5.88436 43.6657 4.94338C41.6104 4.0024 39.3763 3.51559 37.1158 3.51611ZM37.1158 31.474C35.9127 31.4737 34.7163 31.2959 33.5651 30.9463L31.5609 30.3382L30.0809 31.8182L24.5225 37.3766L22.1129 34.9687L19.6421 37.4395L22.0517 39.8491L19.2804 42.6205L16.8708 40.2108L14.4 42.6816L16.8096 45.0913L12.9532 48.9477H7.41051V43.405L24.5382 26.2773L26.02 24.7973L25.4119 22.7931C24.665 20.331 24.7136 17.6962 25.5506 15.2633C26.3875 12.8304 27.9704 10.7234 30.0739 9.24194C32.1775 7.76051 34.6946 6.98013 37.2673 7.01178C39.8399 7.04343 42.3371 7.88551 44.4035 9.41823C46.47 10.951 48.0005 13.0963 48.7774 15.549C49.5543 18.0018 49.538 20.637 48.7308 23.08C47.9236 25.5229 46.3666 27.6491 44.2813 29.1561C42.196 30.6631 39.6886 31.4742 37.1158 31.474Z" fill="#180161"/>
<path d="M38.8631 20.9895C40.7932 20.9895 42.3579 19.4248 42.3579 17.4947C42.3579 15.5646 40.7932 14 38.8631 14C36.9331 14 35.3684 15.5646 35.3684 17.4947C35.3684 19.4248 36.9331 20.9895 38.8631 20.9895Z" fill="#180161"/>
</svg>
