<svg width="30" height="28" viewBox="0 0 30 28" fill="none" xmlns="http://www.w3.org/2000/svg">
<g clip-path="url(#clip0_2093_181)">
<path d="M25 4.66669H5C3.625 4.66669 2.5125 5.71669 2.5125 7.00002L2.5 21C2.5 22.2834 3.625 23.3334 5 23.3334H25C26.375 23.3334 27.5 22.2834 27.5 21V7.00002C27.5 5.71669 26.375 4.66669 25 4.66669ZM24.5 9.62502L15.6625 14.7817C15.2625 15.015 14.7375 15.015 14.3375 14.7817L5.5 9.62502C5.37466 9.55935 5.2649 9.47062 5.17736 9.36422C5.08982 9.25781 5.02633 9.13593 4.99072 9.00595C4.95511 8.87598 4.94813 8.74061 4.9702 8.60804C4.99226 8.47548 5.04292 8.34847 5.1191 8.2347C5.19528 8.12094 5.29541 8.02279 5.41341 7.94618C5.53141 7.86958 5.66484 7.81612 5.80562 7.78904C5.9464 7.76195 6.0916 7.76181 6.23244 7.78863C6.37328 7.81544 6.50683 7.86864 6.625 7.94502L15 12.8334L23.375 7.94502C23.4932 7.86864 23.6267 7.81544 23.7676 7.78863C23.9084 7.76181 24.0536 7.76195 24.1944 7.78904C24.3352 7.81612 24.4686 7.86958 24.5866 7.94618C24.7046 8.02279 24.8047 8.12094 24.8809 8.2347C24.9571 8.34847 25.0077 8.47548 25.0298 8.60804C25.0519 8.74061 25.0449 8.87598 25.0093 9.00595C24.9737 9.13593 24.9102 9.25781 24.8226 9.36422C24.7351 9.47062 24.6253 9.55935 24.5 9.62502Z" fill="black"/>
</g>
<defs>
<clipPath id="clip0_2093_181">
<rect width="30" height="28" fill="white"/>
</clipPath>
</defs>
</svg>
