<svg width="30" height="28" viewBox="0 0 30 28" fill="none" xmlns="http://www.w3.org/2000/svg">
<path d="M15 19.8334C15.663 19.8334 16.2989 19.5875 16.7678 19.1499C17.2366 18.7124 17.5 18.1189 17.5 17.5C17.5 16.8812 17.2366 16.2877 16.7678 15.8501C16.2989 15.4125 15.663 15.1667 15 15.1667C14.337 15.1667 13.7011 15.4125 13.2322 15.8501C12.7634 16.2877 12.5 16.8812 12.5 17.5C12.5 18.1189 12.7634 18.7124 13.2322 19.1499C13.7011 19.5875 14.337 19.8334 15 19.8334ZM22.5 9.33335C23.163 9.33335 23.7989 9.57919 24.2678 10.0168C24.7366 10.4544 25 11.0478 25 11.6667V23.3334C25 23.9522 24.7366 24.5457 24.2678 24.9833C23.7989 25.4209 23.163 25.6667 22.5 25.6667H7.5C6.83696 25.6667 6.20107 25.4209 5.73223 24.9833C5.26339 24.5457 5 23.9522 5 23.3334V11.6667C5 11.0478 5.26339 10.4544 5.73223 10.0168C6.20107 9.57919 6.83696 9.33335 7.5 9.33335H8.75V7.00002C8.75 5.45292 9.40848 3.96919 10.5806 2.87523C11.7527 1.78127 13.3424 1.16669 15 1.16669C15.8208 1.16669 16.6335 1.31757 17.3918 1.61072C18.1501 1.90388 18.8391 2.33356 19.4194 2.87523C19.9998 3.41691 20.4602 4.05997 20.7742 4.7677C21.0883 5.47543 21.25 6.23398 21.25 7.00002V9.33335H22.5ZM15 3.50002C14.0054 3.50002 13.0516 3.86877 12.3483 4.52515C11.6451 5.18152 11.25 6.07176 11.25 7.00002V9.33335H18.75V7.00002C18.75 6.07176 18.3549 5.18152 17.6517 4.52515C16.9484 3.86877 15.9946 3.50002 15 3.50002Z" fill="black"/>
</svg>
