<svg width="26" height="27" viewBox="0 0 26 27" fill="none" xmlns="http://www.w3.org/2000/svg">
<path d="M25.0003 25.6668L19.2096 19.8761M19.2096 19.8761C20.2001 18.8856 20.9858 17.7097 21.5219 16.4155C22.058 15.1213 22.3339 13.7342 22.3339 12.3334C22.3339 10.9326 22.058 9.54556 21.5219 8.25138C20.9858 6.95721 20.2001 5.7813 19.2096 4.79078C18.2191 3.80026 17.0432 3.01454 15.749 2.47848C14.4548 1.94241 13.0677 1.6665 11.6669 1.6665C10.2661 1.6665 8.87905 1.94241 7.58488 2.47848C6.29071 3.01454 5.11479 3.80026 4.12427 4.79078C2.12384 6.79122 1 9.5044 1 12.3334C1 15.1625 2.12384 17.8757 4.12427 19.8761C6.12471 21.8766 8.83789 23.0004 11.6669 23.0004C14.496 23.0004 17.2092 21.8766 19.2096 19.8761Z" stroke="white" stroke-opacity="0.9" stroke-width="2" stroke-linecap="round" stroke-linejoin="round"/>
</svg>
