<svg width="27" height="27" viewBox="0 0 27 27" fill="none" xmlns="http://www.w3.org/2000/svg">
<path d="M24.0164 10.6664C24.0164 10.3128 23.8759 9.97362 23.6259 9.72357C23.3758 9.47353 23.0367 9.33305 22.6831 9.33305C22.3294 9.33305 21.9903 9.47353 21.7402 9.72357C21.4902 9.97362 21.3497 10.3128 21.3497 10.6664H24.0164ZM5.34972 10.6664C5.34972 10.3128 5.20924 9.97362 4.95919 9.72357C4.70914 9.47353 4.37001 9.33305 4.01638 9.33305C3.66276 9.33305 3.32362 9.47353 3.07358 9.72357C2.82353 9.97362 2.68305 10.3128 2.68305 10.6664H5.34972ZM24.4071 14.2757C24.6585 14.5186 24.9953 14.653 25.3449 14.6499C25.6945 14.6469 26.0289 14.5067 26.2761 14.2595C26.5234 14.0123 26.6636 13.6778 26.6666 13.3282C26.6697 12.9787 26.5353 12.6419 26.2924 12.3904L24.4071 14.2757ZM13.3497 1.33305L14.2924 0.390382C14.0423 0.14042 13.7033 0 13.3497 0C12.9962 0 12.6571 0.14042 12.4071 0.390382L13.3497 1.33305ZM0.407051 12.3904C0.279704 12.5134 0.178128 12.6605 0.108249 12.8232C0.0383705 12.9858 0.00158876 13.1608 5.03423e-05 13.3378C-0.00148808 13.5149 0.0322476 13.6905 0.0992887 13.8543C0.16633 14.0182 0.265334 14.1671 0.390524 14.2922C0.515715 14.4174 0.664584 14.5164 0.828446 14.5835C0.992307 14.6505 1.16788 14.6843 1.34492 14.6827C1.52196 14.6812 1.69692 14.6444 1.85959 14.5745C2.02226 14.5046 2.16939 14.4031 2.29238 14.2757L0.407051 12.3904ZM6.68305 26.6664H20.0164V23.9997H6.68305V26.6664ZM24.0164 22.6664V10.6664H21.3497V22.6664H24.0164ZM5.34972 22.6664V10.6664H2.68305V22.6664H5.34972ZM26.2924 12.3904L14.2924 0.390382L12.4071 2.27572L24.4071 14.2757L26.2924 12.3904ZM12.4071 0.390382L0.407051 12.3904L2.29238 14.2757L14.2924 2.27572L12.4071 0.390382ZM20.0164 26.6664C21.0773 26.6664 22.0947 26.245 22.8448 25.4948C23.595 24.7447 24.0164 23.7272 24.0164 22.6664H21.3497C21.3497 23.02 21.2092 23.3591 20.9592 23.6092C20.7091 23.8592 20.37 23.9997 20.0164 23.9997V26.6664ZM6.68305 23.9997C6.32943 23.9997 5.99029 23.8592 5.74024 23.6092C5.49019 23.3591 5.34972 23.02 5.34972 22.6664H2.68305C2.68305 23.7272 3.10448 24.7447 3.85462 25.4948C4.60477 26.245 5.62219 26.6664 6.68305 26.6664V23.9997Z" fill="white"/>
</svg>
