<svg width="32" height="30" viewBox="0 0 32 30" fill="none" xmlns="http://www.w3.org/2000/svg">
<path fill-rule="evenodd" clip-rule="evenodd" d="M16.9008 1.8H15.0992L14.0672 5.667L13.032 5.967C12.4288 6.14126 11.8443 6.36826 11.2864 6.645L10.328 7.1205L6.68 5.0685L5.4064 6.264L7.5952 9.684L7.088 10.581C6.79226 11.104 6.54959 11.6519 6.3632 12.2175L6.0448 13.188L1.92 14.1555V15.8445L6.0448 16.812L6.3648 17.7825C6.54933 18.3505 6.7904 18.896 7.088 19.419L7.5952 20.3175L5.4064 23.7375L6.6816 24.9315L10.3296 22.8795L11.2864 23.355C11.8443 23.633 12.4261 23.8595 13.032 24.0345L14.0672 24.333L15.0992 28.2H16.9008L17.9328 24.333L18.968 24.033C19.5712 23.8587 20.1557 23.6317 20.7136 23.355L21.672 22.8795L25.32 24.9315L26.5936 23.736L24.4048 20.316L24.912 19.419C25.2085 18.896 25.4501 18.3505 25.6368 17.7825L25.9552 16.812L30.08 15.8445V14.1555L25.9552 13.188L25.6352 12.2175C25.4493 11.652 25.2072 11.1041 24.912 10.581L24.4048 9.6825L26.5936 6.2625L25.3184 5.0685L21.6704 7.1205L20.7136 6.645C20.1557 6.36774 19.5713 6.14024 18.968 5.9655L17.9328 5.667L16.9008 1.8ZM21.6128 5.055L24.5456 3.405C24.8514 3.23304 25.2097 3.16179 25.5637 3.20255C25.9176 3.24332 26.2469 3.39376 26.4992 3.63L28.128 5.157C28.38 5.39355 28.5405 5.70224 28.5839 6.03406C28.6274 6.36588 28.5514 6.7018 28.368 6.9885L26.608 9.738C26.96 10.358 27.248 11.008 27.472 11.688L30.7888 12.4665C31.1348 12.5478 31.4419 12.7351 31.6614 12.9987C31.8808 13.2623 32 13.5871 32 13.9215V16.0785C32 16.4129 31.8808 16.7377 31.6614 17.0013C31.4419 17.2649 31.1348 17.4522 30.7888 17.5335L27.472 18.312C27.248 18.992 26.96 19.642 26.608 20.262L28.368 23.0115C28.5514 23.2982 28.6274 23.6341 28.5839 23.9659C28.5405 24.2978 28.38 24.6064 28.128 24.843L26.4992 26.37C26.2469 26.6062 25.9176 26.7567 25.5637 26.7974C25.2097 26.8382 24.8514 26.767 24.5456 26.595L21.6128 24.945C20.9515 25.275 20.2581 25.545 19.5328 25.755L18.7024 28.8645C18.6157 29.1889 18.4159 29.4768 18.1347 29.6825C17.8535 29.8882 17.5071 30 17.1504 30H14.8496C14.4929 30 14.1465 29.8882 13.8653 29.6825C13.5841 29.4768 13.3843 29.1889 13.2976 28.8645L12.4672 25.755C11.7483 25.5467 11.0519 25.2755 10.3872 24.945L7.4544 26.595C7.14859 26.767 6.79027 26.8382 6.43633 26.7974C6.08239 26.7567 5.75312 26.6062 5.5008 26.37L3.872 24.843C3.62001 24.6064 3.45954 24.2978 3.41606 23.9659C3.37258 23.6341 3.44858 23.2982 3.632 23.0115L5.392 20.262C5.03943 19.6388 4.75015 18.986 4.528 18.312L1.2112 17.5335C0.865471 17.4523 0.558557 17.2652 0.33914 17.0019C0.119723 16.7386 0.000365828 16.4141 0 16.08V13.923C9.37669e-06 13.5886 0.119203 13.2638 0.338649 13.0002C0.558094 12.7366 0.865205 12.5493 1.2112 12.468L4.528 11.6895C4.752 11.0095 5.04 10.3595 5.392 9.7395L3.632 6.99C3.44858 6.7033 3.37258 6.36738 3.41606 6.03556C3.45954 5.70374 3.62001 5.39505 3.872 5.1585L5.5008 3.63C5.75312 3.39376 6.08239 3.24332 6.43633 3.20255C6.79027 3.16179 7.14859 3.23304 7.4544 3.405L10.3872 5.055C11.0485 4.725 11.7419 4.455 12.4672 4.245L13.2976 1.1355C13.3842 0.811379 13.5838 0.523648 13.8646 0.317944C14.1455 0.11224 14.4916 0.000342964 14.848 0H17.1488C17.5055 8.79065e-06 17.8519 0.111753 18.1331 0.317483C18.4143 0.523213 18.6141 0.81113 18.7008 1.1355L19.5312 4.245C20.2565 4.455 20.9499 4.725 21.6112 5.055H21.6128ZM16 19.2C17.1882 19.2 18.3277 18.7575 19.1678 17.9698C20.008 17.1822 20.48 16.1139 20.48 15C20.48 13.8861 20.008 12.8178 19.1678 12.0302C18.3277 11.2425 17.1882 10.8 16 10.8C14.8118 10.8 13.6723 11.2425 12.8322 12.0302C11.992 12.8178 11.52 13.8861 11.52 15C11.52 16.1139 11.992 17.1822 12.8322 17.9698C13.6723 18.7575 14.8118 19.2 16 19.2ZM16 21C14.3026 21 12.6747 20.3679 11.4745 19.2426C10.2743 18.1174 9.6 16.5913 9.6 15C9.6 13.4087 10.2743 11.8826 11.4745 10.7574C12.6747 9.63214 14.3026 9 16 9C17.6974 9 19.3253 9.63214 20.5255 10.7574C21.7257 11.8826 22.4 13.4087 22.4 15C22.4 16.5913 21.7257 18.1174 20.5255 19.2426C19.3253 20.3679 17.6974 21 16 21Z" fill="white"/>
</svg>
